<svg width="835" height="316" viewBox="0 0 835 316" fill="none" xmlns="http://www.w3.org/2000/svg">
<path d="M50.698 256.456H0V61.5439H50.698V256.456Z" fill="#F7B5CD"/>
<path d="M228.94 58C248.394 58 265.883 62.6267 281.407 71.8801C296.931 80.9367 309.114 93.7339 317.957 110.272L279.343 136.556C266.767 115.292 249.868 104.661 228.645 104.661C218.427 104.661 209.29 106.925 201.233 111.453C193.176 115.981 186.888 122.38 182.369 130.649C177.849 138.918 175.589 148.467 175.589 159.295C175.589 175.44 180.502 188.532 190.327 198.573C200.349 208.417 213.122 213.339 228.645 213.339C249.868 213.339 266.767 202.708 279.343 181.444L317.957 207.728C309.114 224.266 296.931 237.162 281.407 246.415C265.883 255.472 248.296 260 228.645 260C209.388 260 191.703 255.57 175.589 246.711C159.673 237.851 146.998 225.743 137.566 210.386C128.33 195.029 123.712 177.901 123.712 159C123.712 140.296 128.33 123.266 137.566 107.909C146.998 92.3558 159.673 80.1491 175.589 71.2895C191.703 62.4298 209.486 58 228.94 58Z" fill="#F7B5CD"/>
<path d="M484.132 58C503.193 58 520.78 62.4298 536.893 71.2895C553.007 80.1491 565.78 92.3558 575.212 107.909C584.644 123.266 589.36 140.296 589.36 159C589.36 177.901 584.644 195.029 575.212 210.386C565.78 225.743 553.007 237.851 536.893 246.711C520.78 255.57 503.193 260 484.132 260C465.071 260 447.484 255.57 431.371 246.711C415.454 237.851 402.779 225.743 393.347 210.386C384.112 195.029 379.494 177.901 379.494 159C379.494 140.296 384.112 123.266 393.347 107.909C402.779 92.3558 415.454 80.1491 431.371 71.2895C447.484 62.4298 465.071 58 484.132 58ZM484.427 104.661C474.012 104.661 464.776 106.925 456.72 111.453C448.86 115.981 442.67 122.38 438.15 130.649C433.631 138.918 431.371 148.368 431.371 159C431.371 175.341 436.283 188.532 446.109 198.573C455.934 208.417 468.707 213.339 484.427 213.339C494.449 213.339 503.488 211.075 511.544 206.547C519.601 202.019 525.889 195.718 530.409 187.646C535.125 179.377 537.483 169.828 537.483 159C537.483 148.368 535.125 138.918 530.409 130.649C525.889 122.38 519.601 115.981 511.544 111.453C503.488 106.925 494.449 104.661 484.427 104.661Z" fill="#F7B5CD"/>
<path d="M835 61.5439V260H818.788L713.266 157.523V256.456H662.568V58H678.779L784.302 159V61.5439H835Z" fill="#F7B5CD"/>
<g clip-path="url(#clip0_2_1200)">
<path d="M470.783 20.0628C469.281 23.5791 469.23 27.547 470.643 31.1005C472.055 34.654 474.816 37.5043 478.323 39.0294C481.841 40.5347 485.813 40.5856 489.369 39.1709C492.925 37.7562 495.776 34.9911 497.3 31.48C498.811 27.9514 498.86 23.9667 497.435 20.4022C496.009 16.8377 493.226 13.9853 489.698 12.472C487.899 11.695 485.96 11.2938 484 11.2931C481.183 11.3104 478.432 12.1493 476.084 13.7071C473.736 15.2648 471.894 17.4736 470.783 20.0628Z" fill="#F7B5CD"/>
<path d="M374.203 71.0266C375.072 73.2177 376.365 75.2159 378.008 76.9068C379.651 78.5977 381.61 79.9481 383.776 80.8807C385.941 81.8134 388.268 82.3101 390.625 82.3423C392.983 82.3745 395.323 81.9416 397.513 81.0684C401.934 79.3097 405.475 75.8672 407.358 71.4978C409.241 67.1284 409.312 62.19 407.554 57.7686C406.228 54.4283 403.928 51.5637 400.954 49.5463C397.979 47.5289 394.467 46.4518 390.873 46.4548C388.607 46.4511 386.361 46.8793 384.255 47.7165C379.831 49.4753 376.287 52.9189 374.402 57.2902C372.517 61.6615 372.445 66.6024 374.203 71.0266Z" fill="#F7B5CD"/>
<path d="M338.41 163.316C339.833 166.868 342.603 169.712 346.116 171.227C349.63 172.743 353.6 172.806 357.16 171.403C360.711 169.98 363.556 167.21 365.071 163.697C366.587 160.183 366.65 156.213 365.247 152.653C364.174 149.965 362.319 147.659 359.922 146.035C357.526 144.411 354.698 143.543 351.803 143.542C349.978 143.548 348.171 143.899 346.477 144.577C342.931 146.003 340.093 148.774 338.582 152.284C337.071 155.794 337.009 159.76 338.41 163.316Z" fill="#F7B5CD"/>
<path d="M602.774 152.674C601.376 156.236 601.445 160.207 602.967 163.719C604.488 167.23 607.337 169.997 610.892 171.413C614.453 172.808 618.422 172.737 621.931 171.216C625.44 169.695 628.204 166.847 629.621 163.295C631.02 159.734 630.952 155.764 629.433 152.253C627.914 148.742 625.066 145.974 621.513 144.556C619.83 143.878 618.033 143.527 616.218 143.522C613.319 143.525 610.487 144.4 608.09 146.032C605.693 147.664 603.841 149.978 602.774 152.674Z" fill="#F7B5CD"/>
<path d="M388.619 233.587C386.583 233.59 384.566 233.976 382.672 234.725C378.695 236.304 375.507 239.399 373.81 243.328C372.114 247.257 372.046 251.699 373.623 255.677C374.404 257.646 375.566 259.442 377.041 260.962C378.516 262.482 380.276 263.696 382.221 264.536C384.166 265.375 386.257 265.823 388.375 265.854C390.493 265.885 392.597 265.498 394.565 264.716C396.535 263.936 398.332 262.775 399.853 261.3C401.374 259.825 402.59 258.065 403.43 256.12C404.271 254.175 404.719 252.084 404.751 249.965C404.783 247.847 404.396 245.743 403.614 243.774C402.423 240.769 400.356 238.191 397.682 236.375C395.009 234.559 391.851 233.588 388.619 233.587Z" fill="#F7B5CD"/>
<path d="M477.578 276.65C476.021 277.265 474.601 278.182 473.4 279.348C472.199 280.514 471.24 281.906 470.579 283.444C469.918 284.981 469.567 286.635 469.547 288.309C469.527 289.982 469.838 291.644 470.463 293.197C471.708 296.326 474.145 298.834 477.238 300.168C480.331 301.502 483.827 301.554 486.958 300.312C488.513 299.695 489.932 298.778 491.132 297.612C492.333 296.445 493.291 295.054 493.952 293.516C494.613 291.979 494.964 290.326 494.985 288.653C495.005 286.979 494.695 285.318 494.073 283.765C493.142 281.415 491.53 279.397 489.444 277.969C487.358 276.541 484.894 275.768 482.366 275.75H482.159C480.589 275.759 479.035 276.064 477.578 276.65Z" fill="#F7B5CD"/>
<path d="M560.983 258.387C561.852 260.58 563.145 262.581 564.787 264.274C566.43 265.968 568.39 267.321 570.556 268.256C572.722 269.192 575.051 269.691 577.41 269.726C579.769 269.761 582.111 269.331 584.304 268.459C588.729 266.704 592.275 263.264 594.164 258.895C596.053 254.526 596.129 249.585 594.377 245.16C593.056 241.804 590.755 238.925 587.774 236.896C584.793 234.867 581.27 233.782 577.664 233.784C575.402 233.781 573.159 234.209 571.056 235.045C568.86 235.914 566.857 237.208 565.162 238.852C563.467 240.496 562.113 242.458 561.177 244.626C560.241 246.794 559.743 249.126 559.709 251.487C559.676 253.848 560.109 256.193 560.983 258.387Z" fill="#F7B5CD"/>
<path d="M560.859 71.1507C561.73 73.3396 563.023 75.3354 564.666 77.024C566.308 78.7126 568.268 80.0608 570.432 80.9915C572.596 81.9222 574.922 82.4172 577.278 82.4481C579.633 82.4791 581.971 82.0453 584.159 81.1717C588.578 79.4111 592.117 75.9677 593.998 71.5986C595.88 67.2294 595.949 62.2921 594.191 57.872C592.857 54.5378 590.553 51.6808 587.577 49.671C584.601 47.6612 581.09 46.5912 577.499 46.5995C575.232 46.6014 572.986 47.033 570.88 47.8716C566.468 49.6343 562.935 53.0751 561.057 57.4392C559.178 61.8033 559.107 66.7343 560.859 71.1507Z" fill="#F7B5CD"/>
<path d="M415.6 15.0782C417.207 16.8494 419.451 17.9107 421.84 18.029C424.229 18.1473 426.567 17.3129 428.341 15.709C430.112 14.102 431.174 11.8578 431.292 9.46902C431.41 7.08028 430.576 4.74221 428.972 2.96806C428.128 2.03336 427.097 1.28621 425.947 0.774935C424.796 0.263663 423.55 -0.000341382 422.291 3.31298e-07C420.051 0.00224506 417.892 0.835011 416.231 2.33722C414.46 3.94426 413.398 6.18846 413.28 8.5772C413.162 10.9659 413.996 13.304 415.6 15.0782Z" fill="#F7B5CD"/>
<path d="M328.316 102.01C329.11 102.89 330.069 103.605 331.139 104.114C332.209 104.622 333.369 104.915 334.552 104.976C335.735 105.036 336.919 104.863 338.035 104.466C339.151 104.069 340.178 103.456 341.057 102.662C341.937 101.868 342.652 100.909 343.161 99.8391C343.67 98.7692 343.963 97.6095 344.023 96.4263C344.084 95.2431 343.91 94.0595 343.513 92.9433C343.116 91.827 342.503 90.8 341.709 89.9208C340.866 88.9811 339.834 88.2293 338.682 87.7143C337.529 87.1994 336.28 86.9329 335.018 86.9321C332.783 86.9321 330.627 87.7612 328.968 89.2589C328.087 90.0527 327.371 91.0124 326.861 92.0833C326.351 93.1541 326.058 94.315 325.997 95.4994C325.937 96.6839 326.11 97.8686 326.508 98.9858C326.906 100.103 327.521 101.131 328.316 102.01Z" fill="#F7B5CD"/>
<path d="M328.968 213.018C327.195 214.623 326.132 216.867 326.012 219.256C325.892 221.644 326.724 223.983 328.327 225.759C329.933 227.531 332.176 228.595 334.565 228.715C336.953 228.835 339.292 228.002 341.068 226.4C341.947 225.606 342.661 224.646 343.169 223.576C343.677 222.505 343.969 221.345 344.028 220.162C344.088 218.979 343.914 217.796 343.516 216.68C343.118 215.564 342.504 214.537 341.709 213.659C340.864 212.723 339.832 211.975 338.679 211.464C337.526 210.952 336.279 210.689 335.018 210.691C332.783 210.69 330.627 211.519 328.968 213.018Z" fill="#F7B5CD"/>
<path d="M415.476 313.022C416.271 313.901 417.23 314.614 418.301 315.122C419.371 315.63 420.531 315.922 421.714 315.982C422.897 316.042 424.08 315.867 425.196 315.469C426.312 315.071 427.339 314.458 428.217 313.663C429.99 312.057 431.053 309.814 431.173 307.425C431.294 305.036 430.461 302.697 428.858 300.922C428.011 299.987 426.976 299.239 425.822 298.728C424.668 298.217 423.419 297.953 422.157 297.954C419.923 297.956 417.771 298.789 416.117 300.291C415.239 301.084 414.525 302.043 414.017 303.113C413.509 304.182 413.217 305.341 413.158 306.523C413.098 307.706 413.272 308.888 413.67 310.003C414.068 311.118 414.682 312.144 415.476 313.022Z" fill="#F7B5CD"/>
<path d="M539.038 313.032C539.832 313.912 540.791 314.627 541.861 315.136C542.932 315.645 544.092 315.937 545.276 315.997C546.459 316.056 547.643 315.882 548.759 315.483C549.875 315.084 550.901 314.469 551.779 313.673C552.659 312.88 553.374 311.92 553.882 310.85C554.391 309.781 554.684 308.621 554.745 307.438C554.805 306.254 554.632 305.071 554.235 303.955C553.838 302.838 553.225 301.811 552.431 300.932C551.583 299.996 550.549 299.247 549.395 298.734C548.241 298.221 546.992 297.955 545.729 297.954C543.492 297.952 541.334 298.785 539.679 300.291C538.8 301.085 538.086 302.045 537.579 303.115C537.071 304.186 536.778 305.345 536.719 306.529C536.659 307.712 536.834 308.895 537.231 310.011C537.629 311.127 538.243 312.153 539.038 313.032Z" fill="#F7B5CD"/>
<path d="M632.972 211.032C630.736 211.029 628.579 211.859 626.922 213.359C626.041 214.153 625.326 215.114 624.817 216.185C624.308 217.256 624.016 218.417 623.956 219.602C623.897 220.786 624.071 221.971 624.47 223.087C624.869 224.204 625.484 225.231 626.281 226.11C627.886 227.883 630.13 228.946 632.518 229.066C634.907 229.187 637.246 228.354 639.022 226.751C639.902 225.957 640.617 224.997 641.126 223.925C641.635 222.854 641.928 221.693 641.987 220.509C642.047 219.324 641.872 218.14 641.473 217.023C641.074 215.906 640.459 214.879 639.663 214C638.817 213.065 637.784 212.318 636.632 211.807C635.479 211.295 634.232 211.032 632.972 211.032Z" fill="#F7B5CD"/>
<path d="M626.281 102.351C627.886 104.124 630.13 105.187 632.518 105.308C634.907 105.428 637.246 104.595 639.022 102.993C639.902 102.198 640.617 101.238 641.126 100.167C641.635 99.0955 641.928 97.9345 641.987 96.75C642.047 95.5656 641.872 94.381 641.473 93.2642C641.074 92.1473 640.459 91.1201 639.663 90.2414C638.817 89.3064 637.784 88.5592 636.632 88.0479C635.479 87.5367 634.232 87.2728 632.972 87.2733C630.736 87.2704 628.579 88.0999 626.922 89.6002C626.041 90.3946 625.326 91.3549 624.817 92.4261C624.308 93.4973 624.016 94.6584 623.956 95.8428C623.897 97.0273 624.071 98.2118 624.47 99.3287C624.869 100.446 625.484 101.473 626.281 102.351Z" fill="#F7B5CD"/>
<path d="M539.979 2.33722C539.101 3.13131 538.389 4.09067 537.882 5.16044C537.375 6.23021 537.084 7.38941 537.025 8.57175C536.967 9.7541 537.142 10.9364 537.54 12.051C537.939 13.1657 538.553 14.1908 539.349 15.0678C540.143 15.9458 541.102 16.6586 542.172 17.1655C543.242 17.6724 544.401 17.9634 545.583 18.022C546.765 18.0806 547.948 17.9056 549.062 17.5069C550.177 17.1083 551.202 16.4938 552.079 15.6987C552.957 14.9046 553.67 13.9452 554.177 12.8754C554.684 11.8057 554.975 10.6465 555.033 9.46412C555.092 8.28177 554.917 7.09948 554.518 5.98483C554.12 4.87019 553.505 3.84506 552.71 2.96806C551.866 2.03336 550.835 1.28621 549.685 0.774935C548.534 0.263663 547.289 -0.000341382 546.029 3.31298e-07C543.792 0.000858519 541.636 0.833982 539.979 2.33722Z" fill="#F7B5CD"/>
</g>
<defs>
<clipPath id="clip0_2_1200">
<rect width="316" height="316" fill="white" transform="translate(326)"/>
</clipPath>
</defs>
</svg>
